<?xml version="1.0" encoding="UTF-8"?>
<svg version="1.1" xmlns="http://www.w3.org/2000/svg" width="512" height="512">
<path d="M0 0 C19.47888046 16.36922521 35.30909935 37.95687738 38 64 C38.44199304 73.99512993 38.25548788 84.00157992 38 94 C38.99628418 93.9685791 38.99628418 93.9685791 40.01269531 93.93652344 C64.69794234 93.26009801 64.69794234 93.26009801 74 98 C74.85078125 98.4125 75.7015625 98.825 76.578125 99.25 C88.86514674 105.88348413 97.88391183 116.67320517 102.07495117 129.94018555 C104.80648405 139.89756593 104.9970006 149.93742627 105.42578125 160.20703125 C105.53830535 162.59657738 105.65250523 164.98604502 105.7681427 167.3754425 C105.99914481 172.19456261 106.22426982 177.01386064 106.44204992 181.83359474 C106.9848834 193.8430124 107.5759633 205.84992701 108.16943359 217.85693359 C109.23793373 239.51190043 110.28684458 261.16776698 111.32794273 282.824067 C111.3843188 283.99676112 111.44069486 285.16945524 111.4987793 286.37768555 C111.58348643 288.14001186 111.58348643 288.14001186 111.66990483 289.93794072 C112.13350936 299.57787791 112.60063889 309.21764215 113.06845397 318.8573758 C113.52509209 328.26998815 113.97931981 337.68271483 114.43168145 347.09553367 C114.69958224 352.66923128 114.96842227 358.24287939 115.23973656 363.81641197 C115.49288099 369.01832068 115.74300939 374.22036595 115.99086571 379.42252922 C116.08169474 381.31837373 116.17357187 383.21416838 116.26662064 385.10990524 C118.36143282 427.84541686 118.36143282 427.84541686 102.6875 446.25 C92.48574029 457.06081999 80.16527098 462.04253695 65.41844022 462.56694889 C59.68513929 462.66530782 53.95526045 462.6480558 48.22143555 462.61523438 C45.63449236 462.61874047 43.04755133 462.62440454 40.46061707 462.63204956 C34.19668048 462.64648556 27.93307095 462.63443609 21.66916551 462.61293632 C14.36214064 462.58878677 7.05518848 462.59064906 -0.25186744 462.59324223 C-13.29306047 462.59692218 -26.33410045 462.57619192 -39.37524414 462.54199219 C-52.0090725 462.5088733 -64.64274043 462.49474085 -77.27661133 462.50097656 C-91.06592312 462.50774918 -104.85516798 462.50525822 -118.64446992 462.48561716 C-119.37433957 462.48457768 -120.10420922 462.48353819 -120.85619613 462.4824672 C-122.32175454 462.48037645 -123.78731293 462.47826548 -125.25287128 462.47613403 C-130.33840477 462.46925747 -135.42391756 462.46856589 -140.50945473 462.47001648 C-147.35749876 462.47161109 -154.20534839 462.45664501 -161.05334282 462.43078995 C-163.56312255 462.42364027 -166.07292261 462.42153873 -168.58271027 462.42490768 C-172.01398958 462.42863452 -175.44471533 462.41383253 -178.87593079 462.39440918 C-179.86378093 462.39973711 -180.85163107 462.40506503 -181.86941606 462.41055441 C-196.20391919 462.27100188 -208.38340146 456.27952528 -218.7109375 446.4765625 C-231.14438985 433.02467037 -233.53341262 417.1388623 -232.9132874 399.53899693 C-232.62520987 392.28961436 -232.2678397 385.04354315 -231.91430664 377.79711914 C-231.79744185 375.35490654 -231.68084655 372.91268102 -231.5644989 370.47044373 C-231.28178357 364.55114091 -230.99619784 358.63198081 -230.70923907 352.71288259 C-230.37442948 345.80426277 -230.04289845 338.89548674 -229.71147233 331.98670392 C-229.11954169 319.64994713 -228.52460296 307.31333725 -227.92797852 294.97680664 C-227.35048644 283.03583564 -226.7752164 271.09476031 -226.20239258 259.15356445 C-226.16711403 258.41814661 -226.13183549 257.68272876 -226.0954879 256.92502553 C-226.0602674 256.19081616 -226.02504689 255.45660678 -225.9887591 254.70014864 C-225.33459014 241.0637308 -224.67826014 227.42741768 -224.02097462 213.79114972 C-223.789511 208.98807476 -223.55868965 204.18496919 -223.32808113 199.3818531 C-223.01697989 192.903175 -222.70404266 186.42458702 -222.389925 179.94605446 C-222.27529179 177.5766542 -222.16120107 175.20722763 -222.04771042 172.83777237 C-219.62591849 122.30763183 -219.62591849 122.30763183 -202.515625 106.0703125 C-191.13665845 96.70563506 -179.86836757 93.469097 -165.375 93.8125 C-164.27542969 93.82603516 -163.17585938 93.83957031 -162.04296875 93.85351562 C-159.36144668 93.888492 -156.68099927 93.93756928 -154 94 C-154.0314209 92.77035522 -154.0314209 92.77035522 -154.06347656 91.51586914 C-154.74924555 60.57596894 -150.37704768 34.87910376 -128.3359375 11.37109375 C-94.61920639 -22.8530798 -39.12763276 -29.61944513 0 0 Z M-100 30 C-100.71671875 30.60457031 -101.4334375 31.20914063 -102.171875 31.83203125 C-115.49251353 44.09424695 -120.88422805 60.42659183 -122 78 C-122 83.28 -122 88.56 -122 94 C-79.76 94 -37.52 94 6 94 C6 70.26702363 4.78695706 53.44140117 -11 35 C-11.55300781 34.33484375 -12.10601562 33.6696875 -12.67578125 32.984375 C-24.0584218 20.44369906 -40.43537534 15.04789695 -56.86425781 14.06347656 C-73.0312321 13.58297664 -87.79455324 19.66474266 -100 30 Z M-180.4375 130.8671875 C-181.2109375 131.86105469 -181.2109375 131.86105469 -182 132.875 C-182.53625 133.53242188 -183.0725 134.18984375 -183.625 134.8671875 C-186.34144323 139.08076138 -187.26416036 142.86698818 -187.54135132 147.84251404 C-187.61164362 149.03938622 -187.68193592 150.23625841 -187.75435829 151.46939945 C-187.8239977 152.81218547 -187.89333289 154.15498728 -187.96240234 155.49780273 C-188.04309706 156.94876931 -188.12433107 158.39970598 -188.20604515 159.8506155 C-188.48586271 164.89964964 -188.74385753 169.94971738 -189 175 C-189.04762261 175.93232028 -189.09524523 176.86464055 -189.14431095 177.82521296 C-189.93507219 193.32342661 -190.68319131 208.82364029 -191.42400789 224.32430959 C-191.72568218 230.62922646 -192.0294395 236.93404308 -192.33285522 243.23887634 C-192.87249901 254.45977242 -193.41010486 265.68076528 -193.94684581 276.90180051 C-194.43270477 287.05791707 -194.92067577 297.2139304 -195.41015625 307.36987305 C-196.04323358 320.50525203 -196.67434715 333.64072406 -197.30387497 346.77627373 C-197.54317718 351.76853357 -197.78325679 356.76075511 -198.02397537 361.75294685 C-198.30644635 367.61284543 -198.58703454 373.47283121 -198.86617088 379.33288956 C-198.96870907 381.47912807 -199.07189692 383.62533567 -199.17578697 385.77150917 C-199.3175857 388.70302427 -199.45701561 391.63464293 -199.59585571 394.56629944 C-199.6372919 395.41151392 -199.6787281 396.25672839 -199.72141993 397.12755543 C-200.5155014 411.01939264 -200.5155014 411.01939264 -194.6875 423.3125 C-188.37971627 429.62028373 -181.36826382 430.10645422 -172.87656891 430.1384055 C-171.95011154 430.1368569 -171.02365416 430.1353083 -170.06912231 430.13371277 C-168.57531912 430.1371111 -168.57531912 430.1371111 -167.05133808 430.14057809 C-163.716668 430.1469047 -160.3820387 430.14608958 -157.04736328 430.14526367 C-154.65554756 430.14825598 -152.26373233 430.15165867 -149.87191772 430.15544128 C-144.05070449 430.16336 -138.22950362 430.1664956 -132.40828528 430.16705366 C-127.67546707 430.16752933 -122.9426522 430.16958659 -118.20983505 430.17275429 C-104.78345062 430.1815574 -91.35707418 430.18617415 -77.93068685 430.18542381 C-77.20735413 430.18538386 -76.48402142 430.1853439 -75.73876953 430.18530273 C-75.01455102 430.18526185 -74.29033251 430.18522097 -73.54416798 430.18517885 C-61.80672812 430.18477238 -50.06932034 430.19434303 -38.33188976 430.2084411 C-26.27216656 430.2228117 -14.21245899 430.22971092 -2.15272701 430.22884732 C4.61477776 430.22851561 11.38224889 430.23125147 18.14974594 430.24202538 C24.51416903 430.25170262 30.87852104 430.25178804 37.24294662 430.24450874 C39.57780053 430.24346248 41.91265886 430.24582826 44.24750519 430.2518692 C47.43680544 430.25958597 50.62586007 430.25494624 53.81515503 430.24723816 C54.73715096 430.25238172 55.6591469 430.25752529 56.6090821 430.26282471 C64.57821136 430.22031789 71.6939711 429.32509107 78 424 C82.15121984 418.54731664 84.21778809 414.01035448 83.96569824 407.11146545 C83.93025154 406.08942489 83.89480484 405.06738432 83.858284 404.01437283 C83.78824787 402.29034788 83.78824787 402.29034788 83.71679688 400.53149414 C83.66948174 399.27704278 83.6221666 398.02259142 83.57341766 396.73012638 C82.76873467 375.8850868 81.71515334 355.04906864 80.71031761 334.21299243 C80.46843983 329.19234571 80.22783128 324.17163846 79.98721933 319.15093094 C79.38760328 306.63919748 78.78568888 294.12757559 78.18260652 281.61600883 C77.69318888 271.46130283 77.20593739 261.30649472 76.72021484 251.15161133 C76.15271544 239.28705129 75.58377763 227.42256129 75.01278067 215.55816895 C74.71173866 209.30289959 74.41126795 203.04760424 74.11231995 196.79223442 C73.83186514 190.9256348 73.54933387 185.05913871 73.26523018 179.19271469 C73.16171093 177.04822705 73.05890211 174.90370497 72.95687675 172.75914574 C73.5447512 149.89739173 73.5447512 149.89739173 63.75 130.625 C58.07222658 125.59370573 49.92483217 125.70648557 42.75320435 125.73930359 C41.85504309 125.73547804 40.95688183 125.73165249 40.03150356 125.72771102 C37.03933376 125.71744006 34.04735798 125.72136192 31.05517578 125.7253418 C28.90275903 125.72099206 26.75034382 125.71580803 24.59793091 125.70985413 C18.76319105 125.69648108 12.92851603 125.69588359 7.09376383 125.69841743 C2.21808569 125.69948829 -2.6575794 125.6946008 -7.53325474 125.689812 C-19.03829307 125.67872266 -30.54329876 125.67827619 -42.04833984 125.68432617 C-53.90669934 125.69036618 -65.76494019 125.67805288 -77.62327945 125.6567561 C-87.81460318 125.63912797 -98.00588919 125.63314067 -108.1972276 125.63639385 C-114.27955739 125.63820491 -120.36180255 125.63558802 -126.4441185 125.62167931 C-132.16512571 125.60908595 -137.88594823 125.61105948 -143.60695267 125.62409019 C-145.70230929 125.62645223 -147.79767898 125.62373472 -149.89302063 125.61546707 C-152.76197193 125.60496634 -155.63030733 125.613127 -158.49923706 125.6257782 C-159.73137194 125.61471677 -159.73137194 125.61471677 -160.98839843 125.60343188 C-167.76756845 125.66595957 -174.94248035 126.65786155 -180.4375 130.8671875 Z " fill="#737FFF" transform="translate(314,34)"/>
<path d="M0 0 C3.5 1.6875 3.5 1.6875 6 4 C6.763125 4.70125 7.52625 5.4025 8.3125 6.125 C10.76870815 10.30965092 11.18079382 14.18636466 11 19 C9.39982056 24.74182036 6.95867274 27.72540479 2 31 C-2.90527261 33.13272722 -7.07772862 33.33841937 -12.1796875 31.7578125 C-16.14813249 30.10571308 -18.39827701 27.87146088 -20.8125 24.375 C-22.61615977 19.24880908 -23.06347165 14.16638169 -21.30859375 8.94140625 C-16.65285253 -0.11683504 -9.34626726 -1.27098964 0 0 Z " fill="#737FFF" transform="translate(336,179)"/>
<path d="M0 0 C4.11280911 1.66232006 6.37579042 4.1341609 8.9375 7.6875 C10.79169503 13.46822567 11.21645429 19.34664751 8.375 24.875 C5.01163999 29.3004737 2.03654057 31.42362059 -3.3125 32.9375 C-8.85241823 33.03139692 -13.39291781 31.96483647 -17.87109375 28.58984375 C-21.74896201 24.65617882 -22.94801953 20.90163954 -23.1640625 15.42578125 C-22.86693335 11.03251449 -21.63260966 7.67168808 -18.53125 4.49609375 C-12.62066258 -0.58874984 -7.61910676 -0.85739309 0 0 Z " fill="#737FFF" transform="translate(188,179)"/>
</svg>
